<svg id="Group_26" data-name="Group 26" xmlns="http://www.w3.org/2000/svg" width="98.856" height="106.041" viewBox="0 0 98.856 106.041">
  <g id="Group_1" data-name="Group 1" transform="translate(0)">
    <path id="Path_1" data-name="Path 1" d="M183.379,319.693l-.315,3.672c-.055.027-.1.137-.123.356q-.473,4.891-1.411,12.823-1.13,9.535-12,21.742-8.446,9.453-17.523,7.658-11.467-2.3-12.522-13.769-.555-5.857,5-20.5a11.809,11.809,0,0,1,1.1-2.74,1.336,1.336,0,0,1,1.137-.781c.438,0,.671.493.671,1.48q-.473,0-.7,1.562-4.213,12.433-3.439,16.276,1.562,7.4,10.166,8.919,10.172,1.808,17.906-6.494,6.658-7.11,7.151-14.632.267-4.254.507-23.468c.11-9.015.151-13.563.151-13.6q0-4.336,4.069-9.782c.151-.205.26-.315.315-.315.205,0,.329.027.356.082a.545.545,0,0,1,.041.233q0,1.911-.315,9.549l.082,7.508c.055.466.11.849.151,1.137l-.041.041a6.265,6.265,0,0,0,.315.973c1.206,2.6,2.6,4.042,4.22,4.3.63.11.959.151,1.014.151h.63l.507,5.165-2.658,3.836h-.589A5.465,5.465,0,0,1,183.379,319.693Z" transform="translate(-139.433 -260.193)" fill="#3eb78b"/>
    <path id="Path_2" data-name="Path 2" d="M477.014,582.08V580.6l4.932-5h1.178l4.617,5v1.479l-4.617,4.932v.082l4.535,4.85v1.562l-4.631,4.85-1.411.082L477,593.506v-1.562l4.768-4.85h-.082Z" transform="translate(-430.753 -508.305)" fill="#333"/>
    <path id="Path_3" data-name="Path 3" d="M491.863,429.6a6.751,6.751,0,0,0,1.247-1.877,1.176,1.176,0,0,1,.233-.233.83.83,0,0,1,.315-.151.316.316,0,0,1,.315.082,1.085,1.085,0,0,1,.233.781,3.78,3.78,0,0,1-.082.781A22.164,22.164,0,0,1,491,437.391c-.151.206-.3.411-.425.589a7.892,7.892,0,0,1-5.247,3.247l-.849.014-1.178-5.11,3.1-3.795c.7-.055,1.918-.781,2.493-.849A8,8,0,0,0,491.863,429.6Z" transform="translate(-436.19 -380.344)" fill="#3eb78b"/>
    <path id="Path_4" data-name="Path 4" d="M552.594,360.375a32.981,32.981,0,0,1-4.631.589,1.765,1.765,0,0,0-.329.041.65.65,0,0,1-.274.014.247.247,0,0,1-.123-.137,2.5,2.5,0,0,1-.137-.4q7.706-4.459,11.344-6.919a7.208,7.208,0,0,0,1.069-.644c.616-.411,1.027-.685,1.247-.863a11.7,11.7,0,0,0,.9-.822,4.357,4.357,0,0,0,.836-1.11,2.18,2.18,0,0,0,.137-.589c.041-.288.069-.575.1-.877a2.894,2.894,0,0,1,.082-.562q-1.336,0-2.3-.082a16.554,16.554,0,0,1-2.247-.37,5.006,5.006,0,0,1-2.137-1.014,3.787,3.787,0,0,1-1.206-1.822,4.493,4.493,0,0,1,.233-2.891,20.576,20.576,0,0,0,.589-1.973c.206-.822.4-1.521.562-2.11a11.144,11.144,0,0,1,.74-1.891A5.837,5.837,0,0,1,558.2,334.3c1.206-1.274,2.37-1.754,3.521-1.452a4.467,4.467,0,0,1,1.959,1.685q2.076,2.815,1.836,7.782a21.03,21.03,0,0,1-1.178,6.1q-1.048,3.021-2.425,6.261a10.661,10.661,0,0,0-.411,1c-.192.507-.356.9-.466,1.178a9.3,9.3,0,0,1-.493.959,2.7,2.7,0,0,1-.726.863,2.255,2.255,0,0,1-.918.425C556.991,359.553,554.882,359.977,552.594,360.375Z" transform="translate(-491.249 -298.737)" fill="#3eb78b"/>
    <path id="Path_5" data-name="Path 5" d="M713.685,250.872q-2.98-7.542-1.26-27.14l.548-6.494.082-1.178a3.266,3.266,0,0,1,.425-.863c1.1-1.85,2-3.329,2.7-4.425a3.591,3.591,0,0,1,.466-.548c.11-.055.137-.1.123-.123l.082.082q-1.048,9.741-1.288,15.454c-.082,1.671-.137,3.014-.151,4.028-.37,5.316.1,9.33,1.37,12.042a6.74,6.74,0,0,0,4.535,3.987h.9l2.233,6.028-4.384,3.521h-.589a5.7,5.7,0,0,1-3.055-.822A7.653,7.653,0,0,1,713.685,250.872Z" transform="translate(-633.379 -192.879)" fill="#3eb78b"/>
    <path id="Path_6" data-name="Path 6" d="M782.7,236.394V234.9l4.932-5h1.178l4.617,5v1.493l-4.576,4.932v.082l4.494,4.85v1.562l-4.617,4.836-1.411.082-4.617-4.932v-1.562l4.768-4.85H787.4Z" transform="translate(-694.571 -209.966)" fill="#333"/>
    <path id="Path_7" data-name="Path 7" d="M762.4,435.508l3.672-4.494a5.329,5.329,0,0,0,5.165-3.521,8.525,8.525,0,0,1,1.247-2.37.674.674,0,0,0,.233.055l.315-.151c.11-.055.206-.027.315.082a1.526,1.526,0,0,1,.233.781,2.292,2.292,0,0,1-.082.781c-1.124,5.192-2.247,8.549-3.37,10.1-1.671,2.288-3.576,3.576-5.713,3.836h-.507Z" transform="translate(-677.052 -378.337)" fill="#3eb78b"/>
    <path id="Path_8" data-name="Path 8" d="M657.7,101.388c-1.041,0-5.6-3.768-5.6-3.768l.247-1.288a38.81,38.81,0,0,0,4.644-.164v-.082a4.385,4.385,0,0,1-1.521-3.521c0-3.768,2.809-8.165,7.124-8.165,4.165,0,4.562,7.042,4.562,7.042l-1.288.315a4.1,4.1,0,0,0-3.288-1.836,7.233,7.233,0,0,0-4.809,1.918,5.044,5.044,0,0,0,4.891,3.288,18,18,0,0,0,6.33-1.288l.4.562-2.082,4.644A56.883,56.883,0,0,1,657.7,101.388Z" transform="translate(-581.864 -84.4)" fill="#333"/>
  </g>
  <g id="Group_4" data-name="Group 4" transform="translate(34.903 92.71)">
    <path id="Path_9" data-name="Path 9" d="M404.9,799.428l-1.1-3.362v-.015c.22-.558.411-1.013.558-1.351s.352-.734.617-1.2a7.2,7.2,0,0,1,.837-1.2,1.864,1.864,0,0,1,1.439-.793,1.286,1.286,0,0,1,.778.235,1.613,1.613,0,0,1,.514.617,3.788,3.788,0,0,1,.279.778,3.611,3.611,0,0,1,.088.778,4.615,4.615,0,0,1-.308,1.527c-.015.015-.015.015-.015.044a.054.054,0,0,1-.015.044.133.133,0,0,1-.044.1,2.305,2.305,0,0,1-.382.367q-.264.22-.4.352l-.015.015-2.745-.984-.264.661,1.072,3.01-.029.015q-.749.33-.837.352Zm.484-4.86,2.422.837a2.388,2.388,0,0,0,.25-1.277,2.445,2.445,0,0,0-.25-1.072.825.825,0,0,0-.763-.5c-.455,0-.91.455-1.351,1.38-.029.044-.088.161-.176.338-.015.044-.044.1-.059.161A.663.663,0,0,0,405.386,794.568Z" transform="translate(-403.8 -786.097)" fill="#333"/>
    <path id="Path_10" data-name="Path 10" d="M454.709,771.381l.073.088v.91l-.073.073H454.3a1.735,1.735,0,0,1-1.16-.338,2.617,2.617,0,0,1-.69-1.086l-.029.029-.015.015c0,.015,0,.029-.015.029s-.015.015-.029.029a8.2,8.2,0,0,1-4.448,1.835h-.029l-.382-1,.029-.059h.029a13.681,13.681,0,0,0,2.7-.573.209.209,0,0,0,.088-.029l-.029-.074a20.853,20.853,0,0,0-2.1-4.83l-.015-.029.851-.485.029.029a20.083,20.083,0,0,1,1.644,3.891c.029.117.073.308.132.558a5.542,5.542,0,0,0,.147.558l.029.1a6.608,6.608,0,0,1,.6-.338,4.583,4.583,0,0,0,.6-.411V763.6h.9v5.887c0,.308.015.558.029.749a1.682,1.682,0,0,0,.161.573.858.858,0,0,0,.426.426,1.826,1.826,0,0,0,.763.132h.191Z" transform="translate(-441.084 -762.293)" fill="#333"/>
    <path id="Path_11" data-name="Path 11" d="M494.842,792.192v-.984l.029-.015a4.373,4.373,0,0,1,1.424-.294,4,4,0,0,1,2.129.881c.25.162.866.661,1.865,1.468l.015.015-.22.91-.029.015c-1.483.631-2.32.984-2.5,1.042a7.69,7.69,0,0,1-2.657.528h-.984l-.117-.117v-.837l.117-.117h1.057a9.747,9.747,0,0,0,4.331-1.2,14.659,14.659,0,0,0-1.483-.984,3.587,3.587,0,0,0-1.7-.529,4.75,4.75,0,0,0-1.248.22Z" transform="translate(-480.587 -785.585)" fill="#333"/>
    <path id="Path_12" data-name="Path 12" d="M544.961,756.2l.044.485-.029.015a5.039,5.039,0,0,1-1.2.132H542.7V756.3l.675.029a.567.567,0,0,0-.044-.059q-.022-.044-.044-.044a.4.4,0,0,1-.059-.073.874.874,0,0,0-.059-.088.83.83,0,0,1-.117-.411,1.75,1.75,0,0,1,.191-.793l.029-.029a2.746,2.746,0,0,1,.822-.132,3.125,3.125,0,0,1,.617.059l.029.015-.029.44h-.029a5.2,5.2,0,0,0-.661-.029,1.206,1.206,0,0,0-.47.059.8.8,0,0,0-.029.161,1.285,1.285,0,0,0,.279.94h.029a3.6,3.6,0,0,0,1.072-.132Zm-1.776,2.07.7-.631.029.029a20.085,20.085,0,0,1,2.834,2.657l.029-.029.029-.029c0-.015,0-.015.015-.029a5.919,5.919,0,0,0,.455-2.055c.015-.162.015-.866.015-2.129v-.029h.9v1.233a7.338,7.338,0,0,1-.749,3.7l-.029.059.029.044a20.444,20.444,0,0,1,1.7,2.731v.015l-.47,1.072h-5.241l-.4-1.028.015-.073.029-.015a10.37,10.37,0,0,0,1.674-1.116,13.318,13.318,0,0,0,1.512-1.512l.029-.029.015-.029-.044-.044a31.3,31.3,0,0,0-3.039-2.745Zm.925,5.579h4.184a.636.636,0,0,1-.088-.1c-.044-.059-.1-.176-.191-.323s-.161-.279-.206-.352a12.022,12.022,0,0,0-.969-1.321l-.029-.029A7.789,7.789,0,0,1,544.2,763.8Z" transform="translate(-522.307 -754.7)" fill="#333"/>
    <path id="Path_13" data-name="Path 13" d="M596.61,763.5v8.853h-.91V763.5Z" transform="translate(-567.526 -762.208)" fill="#333"/>
    <path id="Path_14" data-name="Path 14" d="M632.669,798.171l.073.088v.91l-.073.073h-.279a1.751,1.751,0,0,1-1.043-.411l-.25-.176c0,.352-.015.661-.029.91a5.043,5.043,0,0,1-.147.837,2.039,2.039,0,0,1-.338.763,1.745,1.745,0,0,1-.617.484,2.147,2.147,0,0,1-.969.206,2.2,2.2,0,0,1-.808-.161l-.029-.015-.162-1,.059.015a2.957,2.957,0,0,0,.984.147.973.973,0,0,0,.925-.411,2.286,2.286,0,0,0,.25-1.145V795h.881v2.922h.059a3.2,3.2,0,0,0,.719.22c.162.015.426.029.793.029Z" transform="translate(-595.084 -789.083)" fill="#333"/>
    <path id="Path_15" data-name="Path 15" d="M661.528,798.086l.073.088v.91l-.073.073h-.367a1.6,1.6,0,0,1-.749-.206,2.123,2.123,0,0,1-.631-.484l-.029-.029-.015-.015c0-.015,0-.029-.015-.029s-.015,0-.015-.015,0-.015-.015-.029l-.455.793h-2.32l-.117-.117v-.852l.117-.088h2.173V794.9H660v2.878h.015l.029.015a2.042,2.042,0,0,0,.675.25,4.828,4.828,0,0,0,.807.044ZM658,801.639a.494.494,0,0,1-.382-.176.6.6,0,0,1-.161-.4.559.559,0,0,1,.161-.382.533.533,0,0,1,.382-.161.6.6,0,0,1,.411.161.48.48,0,0,1,.162.382.6.6,0,0,1-.162.411A.631.631,0,0,1,658,801.639Zm2.173-.176a.5.5,0,0,1-.763,0,.594.594,0,0,1-.162-.4.559.559,0,0,1,.162-.382.545.545,0,0,1,.763.778Z" transform="translate(-619.656 -788.998)" fill="#333"/>
    <path id="Path_16" data-name="Path 16" d="M688.648,793.084l-.382,2.672a4.216,4.216,0,0,0,1.806.352h.073l.411-3.039h.91l-.323,2.716a2.007,2.007,0,0,0,.925.235,11.421,11.421,0,0,0,1.233.088h.132c-.059-.367-.147-.91-.264-1.644s-.191-1.263-.25-1.615v-.029l.91-.22.015.044c.176.969.294,1.7.367,2.187.073.573.1.881.1.91v.029h.015c.015.015.015.015.029.015a2.525,2.525,0,0,0,.661.25,4.848,4.848,0,0,0,.749.044h.015l.073.088v.91l-.073.073h-.294a2.1,2.1,0,0,1-1.395-.69l-.441.69h-.029a5.137,5.137,0,0,1-2.628-.661c-.044-.044-.059-.059-.073-.059l-.484.72h-.059a4.047,4.047,0,0,1-1.218-.191,2.935,2.935,0,0,1-1.028-.529l-.088.72h-2.173l-.073-.059v-.91l.073-.059H687.3l.426-3.039Z" transform="translate(-644.398 -787.036)" fill="#333"/>
    <path id="Path_17" data-name="Path 17" d="M757.677,778.719l.073.059v.954l-.073.059h-.617a4.683,4.683,0,0,1-2.114-.44.49.49,0,0,0-.205-.059,1.228,1.228,0,0,0-.264.088,5.942,5.942,0,0,1-2.422.411h-.881l-.073-.1v-.851l.088-.117H753.8a5.2,5.2,0,0,1-1.512-1.644v-.029a3.969,3.969,0,0,1,.352-.808,5.542,5.542,0,0,1,.5-.749,2.025,2.025,0,0,1,.7-.573,1.865,1.865,0,0,1,.881-.22,1.788,1.788,0,0,1,1.409.587,2.111,2.111,0,0,1,.528,1.454,2.134,2.134,0,0,1-.132.793,3.58,3.58,0,0,1-.426.734c-.147.176-.25.308-.338.411.411.029,1.057.044,1.909.044Zm-4.537-1.85.029.044a3.579,3.579,0,0,0,1.718,1.512c.015,0,.015,0,.029.015s.015.015.029.015v-.015l.029-.029a4.241,4.241,0,0,0,.631-.675,1.307,1.307,0,0,0,.206-.734,1.21,1.21,0,0,0-1.278-1.277C754.007,775.724,753.537,776.105,753.141,776.869Zm1.835-3.729a.5.5,0,0,1-.763,0,.594.594,0,0,1-.161-.4.559.559,0,0,1,.161-.382.48.48,0,0,1,.382-.161.533.533,0,0,1,.382.161.559.559,0,0,1,.162.382A.594.594,0,0,1,754.976,773.14Z" transform="translate(-700.111 -769.631)" fill="#333"/>
    <path id="Path_18" data-name="Path 18" d="M797.972,780.766l.073.088v.91l-.073.073h-.411a1.6,1.6,0,0,1-.749-.206,2.124,2.124,0,0,1-.631-.484l-.029-.029-.015-.015c0-.015,0-.029-.015-.029s-.015,0-.015-.015,0-.015-.015-.029l-.455.793h-2.32l-.117-.118v-.852l.117-.088h2.173V777.58h.91v2.878h.015l.029.015.352.176a1.322,1.322,0,0,0,.382.088c.176.015.44.029.793.029Zm-3.377-5.05a.551.551,0,0,1-.543-.543.6.6,0,0,1,.161-.4.5.5,0,0,1,.4-.176.6.6,0,0,1,.411.162.542.542,0,0,1,.161.411.533.533,0,0,1-.161.382A.669.669,0,0,1,794.595,775.716Zm2.188-.162a.543.543,0,0,1-.925-.382.6.6,0,0,1,.161-.4.534.534,0,0,1,.793,0,.6.6,0,0,1,.161.4A.936.936,0,0,1,796.782,775.554Z" transform="translate(-736.03 -771.678)" fill="#333"/>
    <path id="Path_19" data-name="Path 19" d="M823.786,763.5h.94v8.853h-2.437l-.088-.088v-.9l.088-.088h1.5Z" transform="translate(-760.772 -762.208)" fill="#333"/>
  </g>
  <g id="Group_5" data-name="Group 5" transform="translate(59.245 70.952)">
    <path id="Path_20" data-name="Path 20" d="M571.714,623.438l1-.881.029.059c1.321,2.349,2.261,4.052,2.819,5.094v.015l-.6,1.586a5.294,5.294,0,0,1-2.54.631,3.528,3.528,0,0,1-1.982-.558,1.841,1.841,0,0,1-.837-1.63,2.975,2.975,0,0,1,.7-1.938,11.083,11.083,0,0,1,1.835-1.732Zm-.088-2.276a.73.73,0,0,1-.543.22.683.683,0,0,1-.529-.235.77.77,0,0,1-.206-.529.681.681,0,0,1,.22-.5.689.689,0,0,1,.514-.22.721.721,0,0,1,.529.22.7.7,0,0,1,.235.514A.721.721,0,0,1,571.626,621.163Zm2.789,6.915-.015-.029c-.059-.088-.279-.5-.661-1.219-.088-.162-.22-.382-.382-.675s-.279-.47-.308-.529-.088-.176-.162-.323-.132-.235-.161-.279a.553.553,0,0,1-.029-.088,5.729,5.729,0,0,0-1.321,1.1,2,2,0,0,0-.631,1.292.957.957,0,0,0,.6.9,3.122,3.122,0,0,0,1.336.294,5.088,5.088,0,0,0,.984-.1,2.11,2.11,0,0,0,.822-.294Zm-.411-6.93a.688.688,0,0,1-.529.235.633.633,0,0,1-.514-.235.756.756,0,0,1-.191-.529.754.754,0,0,1,.719-.719.689.689,0,0,1,.514.22.705.705,0,0,1,.22.5A.86.86,0,0,1,574,621.148Z" transform="translate(-569.6 -617.933)" fill="#333"/>
    <path id="Path_21" data-name="Path 21" d="M619.41,652.243l.088.118v1.219l-.088.088h-.382a2.4,2.4,0,0,1-1.395-.543l-.338-.235c0,.47-.014.881-.044,1.2a7.431,7.431,0,0,1-.191,1.116,2.736,2.736,0,0,1-.44,1,2.277,2.277,0,0,1-.808.646,2.852,2.852,0,0,1-1.292.264,2.694,2.694,0,0,1-1.072-.22l-.029-.015-.22-1.321.074.015a3.557,3.557,0,0,0,1.306.191,1.281,1.281,0,0,0,1.219-.558,2.967,2.967,0,0,0,.323-1.512V648H617.3v3.876h.059a3.6,3.6,0,0,0,.954.294,6.839,6.839,0,0,0,1.072.059h.029Z" transform="translate(-606.799 -641.907)" fill="#333"/>
    <path id="Path_22" data-name="Path 22" d="M655.711,650.6h-3.949l-.161-.162v-1.145l.161-.132h2.76V644.4h1.189Zm-2.628,3.083a.7.7,0,0,1-.514.235.653.653,0,0,1-.514-.235.721.721,0,0,1-.22-.529.68.68,0,0,1,.22-.5.709.709,0,0,1,1.028,0,.68.68,0,0,1,.22.5A.933.933,0,0,1,653.083,653.679Zm1.879.22a.653.653,0,0,1-.514-.235.721.721,0,0,1-.22-.528.681.681,0,0,1,.22-.5.689.689,0,0,1,.514-.22.755.755,0,0,1,.719.719.771.771,0,0,1-.22.528A.645.645,0,0,1,654.962,653.9Z" transform="translate(-639.561 -638.836)" fill="#333"/>
    <path id="Path_23" data-name="Path 23" d="M688.3,628.866l.088.117V630.2l-.088.088h-.367a2.4,2.4,0,0,1-1.395-.543l-.338-.235c0,.47-.014.881-.044,1.2a7.412,7.412,0,0,1-.191,1.116,2.733,2.733,0,0,1-.441,1,2.275,2.275,0,0,1-.807.646,2.853,2.853,0,0,1-1.292.264,2.692,2.692,0,0,1-1.072-.22l-.029-.015-.22-1.321.073.015a3.565,3.565,0,0,0,1.307.191,1.28,1.28,0,0,0,1.219-.558,2.966,2.966,0,0,0,.323-1.512v-5.7H686.2V628.5h.059a4.971,4.971,0,0,0,2.011.367Zm-2.833-6.783a.683.683,0,0,1-.529-.235.77.77,0,0,1-.205-.529.68.68,0,0,1,.22-.5.689.689,0,0,1,.514-.22.681.681,0,0,1,.5.22.705.705,0,0,1,.22.5.769.769,0,0,1-.206.529A.653.653,0,0,1,685.462,622.083Z" transform="translate(-665.583 -618.53)" fill="#333"/>
    <path id="Path_24" data-name="Path 24" d="M721.994,644.518v-1.307l.029-.015a6.06,6.06,0,0,1,1.879-.4,5.361,5.361,0,0,1,2.833,1.175c.279.191.573.4.852.6s.6.485.984.793.587.5.661.543l.015.015-.294,1.2-.866.382a3.539,3.539,0,0,0,1.424.294h1.439l.088.088v1.248l-.088.073h-1.424a2.833,2.833,0,0,1-2.334-1.351l-.044.015h-.029c-.044.015-.073.044-.118.044a1.243,1.243,0,0,0-.323.147,1.9,1.9,0,0,0-.323.147,1.1,1.1,0,0,0-.22.117,9.884,9.884,0,0,1-4.052.881h-1.321l-.161-.161v-1.086l.161-.162H722.2a13.025,13.025,0,0,0,5.755-1.6,20.9,20.9,0,0,0-1.967-1.307,4.713,4.713,0,0,0-2.261-.69,6.579,6.579,0,0,0-1.659.294Zm4.17,7.429a.689.689,0,0,1-.514-.22.72.72,0,0,1,.5-1.219.806.806,0,0,1,.543.206.658.658,0,0,1,.22.5.689.689,0,0,1-.22.514A.65.65,0,0,1,726.164,651.947Z" transform="translate(-698.431 -637.471)" fill="#333"/>
    <path id="Path_25" data-name="Path 25" d="M789.214,606.5h1.248v11.76h-3.245l-.117-.117v-1.189l.117-.132h2Z" transform="translate(-755.168 -606.5)" fill="#333"/>
    <path id="Path_26" data-name="Path 26" d="M829.7,606.5v11.76h-1.2V606.5Z" transform="translate(-790.49 -606.5)" fill="#333"/>
  </g>
</svg>
