<svg id="apps_1_" data-name="apps(1)" xmlns="http://www.w3.org/2000/svg" width="29.31" height="29.31" viewBox="0 0 29.31 29.31">
  <path id="Path_92" data-name="Path 92" d="M8.549,0H4.885A4.885,4.885,0,0,0,0,4.885V8.549a4.885,4.885,0,0,0,4.885,4.885H8.549a4.885,4.885,0,0,0,4.885-4.885V4.885A4.885,4.885,0,0,0,8.549,0Zm2.442,8.549a2.442,2.442,0,0,1-2.442,2.442H4.885A2.442,2.442,0,0,1,2.442,8.549V4.885A2.442,2.442,0,0,1,4.885,2.442H8.549a2.442,2.442,0,0,1,2.442,2.442Z" fill="#333"/>
  <path id="Path_93" data-name="Path 93" d="M21.549,0H17.885A4.885,4.885,0,0,0,13,4.885V8.549a4.885,4.885,0,0,0,4.885,4.885h3.664a4.885,4.885,0,0,0,4.885-4.885V4.885A4.885,4.885,0,0,0,21.549,0Zm2.442,8.549a2.442,2.442,0,0,1-2.442,2.442H17.885a2.442,2.442,0,0,1-2.442-2.442V4.885a2.442,2.442,0,0,1,2.442-2.442h3.664a2.442,2.442,0,0,1,2.442,2.442Z" transform="translate(2.876)" fill="#333"/>
  <path id="Path_94" data-name="Path 94" d="M8.549,13H4.885A4.885,4.885,0,0,0,0,17.885v3.664a4.885,4.885,0,0,0,4.885,4.885H8.549a4.885,4.885,0,0,0,4.885-4.885V17.885A4.885,4.885,0,0,0,8.549,13Zm2.442,8.549a2.442,2.442,0,0,1-2.442,2.442H4.885a2.442,2.442,0,0,1-2.442-2.442V17.885a2.442,2.442,0,0,1,2.442-2.442H8.549a2.442,2.442,0,0,1,2.442,2.442Z" transform="translate(0 2.876)" fill="#333"/>
  <path id="Path_95" data-name="Path 95" d="M21.549,13H17.885A4.885,4.885,0,0,0,13,17.885v3.664a4.885,4.885,0,0,0,4.885,4.885h3.664a4.885,4.885,0,0,0,4.885-4.885V17.885A4.885,4.885,0,0,0,21.549,13Zm2.442,8.549a2.442,2.442,0,0,1-2.442,2.442H17.885a2.442,2.442,0,0,1-2.442-2.442V17.885a2.442,2.442,0,0,1,2.442-2.442h3.664a2.442,2.442,0,0,1,2.442,2.442Z" transform="translate(2.876 2.876)" fill="#333"/>
</svg>
